<?xml version="1.0" encoding="UTF-8" standalone="no"?>
<!-- Created with Inkscape (http://www.inkscape.org/) -->

<svg
   xmlns:dc="http://purl.org/dc/elements/1.1/"
   xmlns:cc="http://creativecommons.org/ns#"
   xmlns:rdf="http://www.w3.org/1999/02/22-rdf-syntax-ns#"
   xmlns:svg="http://www.w3.org/2000/svg"
   xmlns="http://www.w3.org/2000/svg"
   version="1.1"
   width="128"
   height="128"
   viewBox="0 0 128 128"
   id="Layer_1"
   xml:space="preserve"
   style="overflow:visible"><metadata
   id="metadata6075"><rdf:RDF><cc:Work
       rdf:about=""><dc:format>image/svg+xml</dc:format><dc:type
         rdf:resource="http://purl.org/dc/dcmitype/StillImage" /><dc:title></dc:title></cc:Work></rdf:RDF></metadata><defs
   id="defs6073" />
<linearGradient
   x1="53.915501"
   y1="91.115196"
   x2="55.820202"
   y2="110.6698"
   id="XMLID_14_"
   gradientUnits="userSpaceOnUse">
	<stop
   id="stop5949"
   style="stop-color:#999999;stop-opacity:1"
   offset="0" />
	<stop
   id="stop5951"
   style="stop-color:#4d4d4d;stop-opacity:1"
   offset="1" />
</linearGradient>
<path
   d="M 0,96.969 C 0,101.766 4.52,104 6.5,104 h 98.342 c 3.922,-0.238 4.158,-3.357 4.158,-7.104 v 0.109 C 109,93.197 0,96.969 0,96.969 z"
   id="path5953"
   style="opacity:0.2;fill:url(#XMLID_14_)" />
<linearGradient
   x1="56.851101"
   y1="91.507797"
   x2="58.826099"
   y2="111.7843"
   id="XMLID_15_"
   gradientUnits="userSpaceOnUse">
	<stop
   id="stop5956"
   style="stop-color:#999999;stop-opacity:1"
   offset="0" />
	<stop
   id="stop5958"
   style="stop-color:#4d4d4d;stop-opacity:1"
   offset="1" />
</linearGradient>
<path
   d="M 0,97.969 C 0,102.078 3.266,105 6.5,105 h 101.553 c 3.922,-0.238 7.114,-0.754 7.114,-4.5 L 115,98.005 C 115,94.296 0,95.861 0,97.969 z"
   id="path5960"
   style="opacity:0.2;fill:url(#XMLID_15_)" />
<linearGradient
   x1="57.940899"
   y1="89.600601"
   x2="60.232399"
   y2="113.1264"
   id="XMLID_16_"
   gradientUnits="userSpaceOnUse">
	<stop
   id="stop5963"
   style="stop-color:#999999;stop-opacity:1"
   offset="0" />
	<stop
   id="stop5965"
   style="stop-color:#4d4d4d;stop-opacity:1"
   offset="1" />
</linearGradient>
<path
   d="M 110.053,97.824 0,95.969 v 3 C 0,104.609 4.52,106 6.5,106 h 103.167 c 1.729,-0.104 3.551,-0.264 5.05,-0.729 1.903,-0.591 3.283,-1.675 3.283,-3.771 0,0 -1.794,-3.676 -7.947,-3.676 z"
   id="path5967"
   style="opacity:0.2;fill:url(#XMLID_16_)" />
<linearGradient
   x1="47.311501"
   y1="10.7583"
   x2="58.862999"
   y2="110.2979"
   id="XMLID_17_"
   gradientUnits="userSpaceOnUse">
	<stop
   id="stop5970"
   style="stop-color:#999999;stop-opacity:1"
   offset="0" />
	<stop
   id="stop5972"
   style="stop-color:#4d4d4d;stop-opacity:1"
   offset="1" />
</linearGradient>
<path
   d="M 6.946,16.1 C 3.116,16.1 0,19.209 0,23.031 V 96.069 C 0,99.891 3.116,103 6.946,103 h 93.108 c 3.83,0 6.945,-3.109 6.945,-6.931 V 32.097 c 0,-3.822 -3.115,-6.931 -6.945,-6.931 H 62.729 c -2.793,0 -6.33,-1.492 -8.801,-3.713 0,0 -1.035,-0.928 -1.035,-0.928 C 50.779,18.626 47.521,16.1 43.647,16.1 H 6.946 z"
   id="path5974"
   style="opacity:0.75;fill:url(#XMLID_17_)" />
<linearGradient
   x1="35.979"
   y1="15.0229"
   x2="68.9291"
   y2="107.2834"
   id="XMLID_18_"
   gradientUnits="userSpaceOnUse">
	<stop
   id="stop5977"
   style="stop-color:#ffffff;stop-opacity:1"
   offset="0" />
	<stop
   id="stop5979"
   style="stop-color:#f4f4f4;stop-opacity:1"
   offset="0.2191" />
	<stop
   id="stop5981"
   style="stop-color:#d8d8d8;stop-opacity:1"
   offset="0.6013" />
	<stop
   id="stop5983"
   style="stop-color:#b3b3b3;stop-opacity:1"
   offset="1" />
</linearGradient>
<path
   d="m 106,96.069 c 0,3.263 -2.676,5.931 -5.945,5.931 H 6.946 C 3.676,102 1,99.332 1,96.069 V 23.031 C 1,19.769 3.676,17.1 6.946,17.1 h 36.701 c 3.271,0 6.149,1.987 8.578,4.169 l 1.034,0.928 c 2.429,2.182 6.2,3.969 9.47,3.969 h 37.326 c 3.27,0 5.945,2.668 5.945,5.931 v 63.972 z"
   id="path5985"
   style="fill:url(#XMLID_18_)" />
<path
   d="M 100.055,26.167 H 62.729 c -3.27,0 -7.041,-1.787 -9.47,-3.969 L 52.225,21.27 C 49.797,19.088 46.918,17.101 43.647,17.101 H 6.946 C 3.676,17.1 1,19.769 1,23.031 v 1 C 1,20.769 3.676,18.1 6.946,18.1 h 36.701 c 3.271,0 6.149,1.987 8.578,4.169 l 1.034,0.928 c 2.429,2.182 6.2,3.969 9.47,3.969 h 37.326 c 3.27,0 5.945,2.668 5.945,5.931 v -1 c 0,-3.262 -2.676,-5.93 -5.945,-5.93 z"
   id="path5987"
   style="fill:#ffffff" />
<linearGradient
   x1="49.921902"
   y1="23.2446"
   x2="58.3703"
   y2="104.0195"
   id="XMLID_19_"
   gradientUnits="userSpaceOnUse">
	<stop
   id="stop5990"
   style="stop-color:#d9d9d9;stop-opacity:1"
   offset="0" />
	<stop
   id="stop5992"
   style="stop-color:#cecece;stop-opacity:1"
   offset="0.37490001" />
	<stop
   id="stop5994"
   style="stop-color:#b3b3b3;stop-opacity:1"
   offset="1" />
</linearGradient>
<path
   d="m 3.344,99.816 c 0,0 0.984,0.168 1.615,-0.284 C 5.625,99.054 6,97.695 6,95.896 V 54.132 c 0,-3.808 3.117,-6.905 6.947,-6.905 h 37.308 c 2.996,0 6.582,-2.007 8.807,-3.997 l 1.033,-0.924 c 3.164,-2.831 6.188,-4.207 9.247,-4.207 H 106 v -0.6 H 68.342 c -3.059,0 -6.083,1.376 -9.247,4.207 l -1.033,0.924 c -2.225,1.989 -5.811,3.997 -8.807,3.997 H 11.947 C 8.117,46.627 5,49.725 5,53.533 v 41.763 c 0.062,2.017 -0.495,3.878 -1.167,4.351 -0.132,0.092 -0.489,0.169 -0.489,0.169 z"
   id="path5996"
   style="fill:url(#XMLID_19_)" />
<linearGradient
   x1="54.9907"
   y1="39.262199"
   x2="63.210098"
   y2="110.0893"
   id="XMLID_20_"
   gradientUnits="userSpaceOnUse">
	<stop
   id="stop5999"
   style="stop-color:#999999;stop-opacity:1"
   offset="0" />
	<stop
   id="stop6001"
   style="stop-color:#4d4d4d;stop-opacity:1"
   offset="1" />
</linearGradient>
<path
   d="m 69.342,38.1 c -3.059,0 -6.083,1.376 -9.247,4.207 l -1.033,0.924 c -2.225,1.989 -5.811,3.996 -8.807,3.996 H 12.947 C 9.117,47.227 6,50.325 6,54.132 V 95.895 C 6,97.742 5.63,99.06 4.985,99.514 4.607,99.78 3.94,99.97 3.171,99.78 2.409,99.592 2.104,99.218 1.608,98.758 c -0.241,0.421 0.332,2.104 0.705,2.414 0.219,0.183 2.062,1.719 4.344,1.719 L 109.053,103 C 112.976,102.762 116,99.642 116,95.896 V 45.005 C 116,41.198 112.884,38.1 109.053,38.1 H 69.342 z"
   id="path6003"
   style="opacity:0.75;fill:url(#XMLID_20_)" />
<radialGradient
   cx="79.615196"
   cy="116.7344"
   r="88.041702"
   id="XMLID_21_"
   gradientUnits="userSpaceOnUse">
	<stop
   id="stop6006"
   style="stop-color:#ffdd70;stop-opacity:1"
   offset="0" />
	<stop
   id="stop6008"
   style="stop-color:#ffab43;stop-opacity:1"
   offset="0.42250001" />
	<stop
   id="stop6010"
   style="stop-color:#ff841f;stop-opacity:1"
   offset="0.80220002" />
	<stop
   id="stop6012"
   style="stop-color:#ff7512;stop-opacity:1"
   offset="1" />
</radialGradient>
<path
   d="m 7,95.896 c 0,3.417 -1.516,5.839 -4.047,4.558 0,0 1.859,1.547 3.547,1.547 1.688,0 102.553,0 102.553,0 3.271,-0.2 5.947,-2.857 5.947,-6.104 V 45.005 C 115,41.757 112.324,39.1 109.053,39.1 H 69.342 c -3.271,0 -6.151,1.779 -8.58,3.952 l -1.033,0.924 c -2.43,2.172 -6.202,4.251 -9.474,4.251 H 12.947 C 9.676,48.227 7,50.884 7,54.132 v 41.764 z"
   id="path6014"
   style="fill:url(#XMLID_21_)" />
<radialGradient
   cx="126.5"
   cy="130.1982"
   r="82.374199"
   id="XMLID_22_"
   gradientUnits="userSpaceOnUse">
	<stop
   id="stop6017"
   style="stop-color:#f2d26a;stop-opacity:1"
   offset="0" />
	<stop
   id="stop6019"
   style="stop-color:#f6b650;stop-opacity:1"
   offset="0.26210001" />
	<stop
   id="stop6021"
   style="stop-color:#fc8723;stop-opacity:1"
   offset="0.75410002" />
	<stop
   id="stop6023"
   style="stop-color:#ff7512;stop-opacity:1"
   offset="1" />
</radialGradient>
<path
   d="M 109.053,39.1 H 106 V 102 c 2.578,0 3.053,0 3.053,0 3.271,-0.2 5.947,-2.857 5.947,-6.104 V 45.005 c 0,-3.248 -2.676,-5.905 -5.947,-5.905 z"
   id="path6025"
   style="fill:url(#XMLID_22_)" />
<linearGradient
   x1="132.50591"
   y1="35.3008"
   x2="40.759701"
   y2="115.4526"
   id="XMLID_23_"
   gradientUnits="userSpaceOnUse">
	<stop
   id="stop6028"
   style="stop-color:#ffdd70;stop-opacity:1"
   offset="0" />
	<stop
   id="stop6030"
   style="stop-color:#ffb047;stop-opacity:1"
   offset="0.38260001" />
	<stop
   id="stop6032"
   style="stop-color:#ff8521;stop-opacity:1"
   offset="0.79100001" />
	<stop
   id="stop6034"
   style="stop-color:#ff7512;stop-opacity:1"
   offset="1" />
</linearGradient>
<path
   d="m 109.053,100 c 0,0 -100.947,-0.52 -102.553,0 -0.324,0.104 -0.608,0.189 -0.866,0.26 -0.623,0.479 -1.739,0.85 -2.638,0.19 0.483,0.38 2.087,1.55 3.504,1.55 1.688,0 102.553,0 102.553,0 3.271,-0.2 5.947,-2.857 5.947,-6.104 v -1 c 0,3.247 -2.676,4.904 -5.947,5.104 z"
   id="path6036"
   style="fill:url(#XMLID_23_)" />
<radialGradient
   cx="87.546898"
   cy="108.1338"
   r="112.4545"
   id="XMLID_24_"
   gradientUnits="userSpaceOnUse">
	<stop
   id="stop6039"
   style="stop-color:#fff3cc;stop-opacity:1"
   offset="0" />
	<stop
   id="stop6041"
   style="stop-color:#ffdbaa;stop-opacity:1"
   offset="0.1912" />
	<stop
   id="stop6043"
   style="stop-color:#ffb06c;stop-opacity:1"
   offset="0.57380003" />
	<stop
   id="stop6045"
   style="stop-color:#ff9445;stop-opacity:1"
   offset="0.85399997" />
	<stop
   id="stop6047"
   style="stop-color:#ff8a36;stop-opacity:1"
   offset="1" />
</radialGradient>
<path
   d="M 58.636,69.891 C 86.75,66.5 115,65.75 115,65.75 V 45.005 C 115,41.757 112.324,39.1 109.053,39.1 H 69.342 c -3.271,0 -6.151,1.779 -8.58,3.952 l -1.033,0.924 c -2.43,2.172 -6.202,4.251 -9.474,4.251 H 12.947 C 9.676,48.227 7,50.884 7,54.132 V 84.75 c 0,0 23.521,-11.469 51.636,-14.859 z"
   id="path6049"
   style="fill:url(#XMLID_24_)" />
<linearGradient
   x1="59.637199"
   y1="28.6401"
   x2="65.511497"
   y2="120.5861"
   id="XMLID_25_"
   gradientUnits="userSpaceOnUse">
	<stop
   id="stop6052"
   style="stop-color:#ebdba6;stop-opacity:1"
   offset="0" />
	<stop
   id="stop6054"
   style="stop-color:#ff7512;stop-opacity:1"
   offset="1" />
</linearGradient>
<path
   d="M 109.053,39.1 H 69.342 c -3.271,0 -6.151,1.779 -8.58,3.952 l -1.033,0.924 c -2.43,2.172 -6.202,4.251 -9.474,4.251 H 12.947 C 9.676,48.227 7,50.884 7,54.132 v 1 c 0,-3.248 2.676,-5.905 5.947,-5.905 h 37.308 c 3.271,0 7.044,-2.079 9.474,-4.251 l 1.033,-0.924 c 2.429,-2.173 5.309,-3.952 8.58,-3.952 h 39.711 c 3.271,0 5.947,2.657 5.947,5.905 v -1 c 0,-3.248 -2.676,-5.905 -5.947,-5.905 z"
   id="path6056"
   style="fill:url(#XMLID_25_)" />
<linearGradient
   x1="103.9541"
   y1="11.4053"
   x2="108.0303"
   y2="106.0095"
   id="XMLID_26_"
   gradientUnits="userSpaceOnUse">
	<stop
   id="stop6059"
   style="stop-color:#999999;stop-opacity:1"
   offset="0" />
	<stop
   id="stop6061"
   style="stop-color:#4d4d4d;stop-opacity:1"
   offset="1" />
</linearGradient>
<rect
   width="1"
   height="63"
   x="106"
   y="39"
   id="rect6063"
   style="opacity:0.15;fill:url(#XMLID_26_)" />
<path
   d="m 42,24 c 0,1.1 -0.9,2 -2,2 H 9 C 7.9,26 7,25.1 7,24 v -2 c 0,-1.1 0.9,-2 2,-2 h 31 c 1.1,0 2,0.9 2,2 v 2 z"
   id="path6065"
   style="fill:#f3af61" />
<path
   d="M 8.5,42 C 7.672,42 7,42.672 7,43.5 7,44.328 7.672,45 8.5,45 9.328,45 10,44.328 10,43.5 10,42.672 9.328,42 8.5,42 z m 9,0 C 16.672,42 16,42.672 16,43.5 16,44.328 16.672,45 17.5,45 18.328,45 19,44.328 19,43.5 19,42.672 18.328,42 17.5,42 z m 9,0 C 25.672,42 25,42.672 25,43.5 25,44.328 25.672,45 26.5,45 27.328,45 28,44.328 28,43.5 28,42.672 27.328,42 26.5,42 z m 9,0 C 34.672,42 34,42.672 34,43.5 34,44.328 34.672,45 35.5,45 36.328,45 37,44.328 37,43.5 37,42.672 36.328,42 35.5,42 z m 9,0 C 43.672,42 43,42.672 43,43.5 43,44.328 43.672,45 44.5,45 45.328,45 46,44.328 46,43.5 46,42.672 45.328,42 44.5,42 z m 9,0 C 52.672,42 52,42.672 52,43.5 52,44.328 52.672,45 53.5,45 54.328,45 55,44.328 55,43.5 55,42.672 54.328,42 53.5,42 z"
   id="path6067"
   style="fill:#cccccc" />
<path
   d="M 8.5,51 C 7.672,51 7,51.672 7,52.5 7,53.328 7.672,54 8.5,54 9.328,54 10,53.328 10,52.5 10,51.672 9.328,51 8.5,51 z m 9,0 C 16.672,51 16,51.672 16,52.5 16,53.328 16.672,54 17.5,54 18.328,54 19,53.328 19,52.5 19,51.672 18.328,51 17.5,51 z m 9,0 C 25.672,51 25,51.672 25,52.5 25,53.328 25.672,54 26.5,54 27.328,54 28,53.328 28,52.5 28,51.672 27.328,51 26.5,51 z m 9,0 C 34.672,51 34,51.672 34,52.5 34,53.328 34.672,54 35.5,54 36.328,54 37,53.328 37,52.5 37,51.672 36.328,51 35.5,51 z m 9,0 C 43.672,51 43,51.672 43,52.5 43,53.328 43.672,54 44.5,54 45.328,54 46,53.328 46,52.5 46,51.672 45.328,51 44.5,51 z m 9,0 C 52.672,51 52,51.672 52,52.5 52,53.328 52.672,54 53.5,54 54.328,54 55,53.328 55,52.5 55,51.672 54.328,51 53.5,51 z m 9,0 C 61.672,51 61,51.672 61,52.5 61,53.328 61.672,54 62.5,54 63.328,54 64,53.328 64,52.5 64,51.672 63.328,51 62.5,51 z m 9,0 C 70.672,51 70,51.672 70,52.5 70,53.328 70.672,54 71.5,54 72.328,54 73,53.328 73,52.5 73,51.672 72.328,51 71.5,51 z m 9,0 C 79.672,51 79,51.672 79,52.5 79,53.328 79.672,54 80.5,54 81.328,54 82,53.328 82,52.5 82,51.672 81.328,51 80.5,51 z m 9,0 C 88.672,51 88,51.672 88,52.5 88,53.328 88.672,54 89.5,54 90.328,54 91,53.328 91,52.5 91,51.672 90.328,51 89.5,51 z m 9,0 c -0.828,0 -1.5,0.672 -1.5,1.5 0,0.828 0.672,1.5 1.5,1.5 0.828,0 1.5,-0.672 1.5,-1.5 0,-0.828 -0.672,-1.5 -1.5,-1.5 z m -36,-9 C 61.672,42 61,42.672 61,43.5 61,44.328 61.672,45 62.5,45 63.328,45 64,44.328 64,43.5 64,42.672 63.328,42 62.5,42 z m 9,0 C 70.672,42 70,42.672 70,43.5 70,44.328 70.672,45 71.5,45 72.328,45 73,44.328 73,43.5 73,42.672 72.328,42 71.5,42 z m 9,0 C 79.672,42 79,42.672 79,43.5 79,44.328 79.672,45 80.5,45 81.328,45 82,44.328 82,43.5 82,42.672 81.328,42 80.5,42 z m 9,0 C 88.672,42 88,42.672 88,43.5 88,44.328 88.672,45 89.5,45 90.328,45 91,44.328 91,43.5 91,42.672 90.328,42 89.5,42 z m 9,3 c 0.828,0 1.5,-0.672 1.5,-1.5 0,-0.828 -0.672,-1.5 -1.5,-1.5 -0.828,0 -1.5,0.672 -1.5,1.5 0,0.828 0.672,1.5 1.5,1.5 z M 8.5,60 C 7.672,60 7,60.672 7,61.5 7,62.328 7.672,63 8.5,63 9.328,63 10,62.328 10,61.5 10,60.672 9.328,60 8.5,60 z m 9,0 C 16.672,60 16,60.672 16,61.5 16,62.328 16.672,63 17.5,63 18.328,63 19,62.328 19,61.5 19,60.672 18.328,60 17.5,60 z m 9,0 C 25.672,60 25,60.672 25,61.5 25,62.328 25.672,63 26.5,63 27.328,63 28,62.328 28,61.5 28,60.672 27.328,60 26.5,60 z m 9,0 C 34.672,60 34,60.672 34,61.5 34,62.328 34.672,63 35.5,63 36.328,63 37,62.328 37,61.5 37,60.672 36.328,60 35.5,60 z m 9,0 C 43.672,60 43,60.672 43,61.5 43,62.328 43.672,63 44.5,63 45.328,63 46,62.328 46,61.5 46,60.672 45.328,60 44.5,60 z m 9,0 C 52.672,60 52,60.672 52,61.5 52,62.328 52.672,63 53.5,63 54.328,63 55,62.328 55,61.5 55,60.672 54.328,60 53.5,60 z m 9,0 C 61.672,60 61,60.672 61,61.5 61,62.328 61.672,63 62.5,63 63.328,63 64,62.328 64,61.5 64,60.672 63.328,60 62.5,60 z m 9,0 C 70.672,60 70,60.672 70,61.5 70,62.328 70.672,63 71.5,63 72.328,63 73,62.328 73,61.5 73,60.672 72.328,60 71.5,60 z m 9,0 C 79.672,60 79,60.672 79,61.5 79,62.328 79.672,63 80.5,63 81.328,63 82,62.328 82,61.5 82,60.672 81.328,60 80.5,60 z m 9,0 C 88.672,60 88,60.672 88,61.5 88,62.328 88.672,63 89.5,63 90.328,63 91,62.328 91,61.5 91,60.672 90.328,60 89.5,60 z m 9,0 c -0.828,0 -1.5,0.672 -1.5,1.5 0,0.828 0.672,1.5 1.5,1.5 0.828,0 1.5,-0.672 1.5,-1.5 0,-0.828 -0.672,-1.5 -1.5,-1.5 z m -90,9 C 7.672,69 7,69.672 7,70.5 7,71.328 7.672,72 8.5,72 9.328,72 10,71.328 10,70.5 10,69.672 9.328,69 8.5,69 z m 9,0 C 16.672,69 16,69.672 16,70.5 16,71.328 16.672,72 17.5,72 18.328,72 19,71.328 19,70.5 19,69.672 18.328,69 17.5,69 z m 9,0 C 25.672,69 25,69.672 25,70.5 25,71.328 25.672,72 26.5,72 27.328,72 28,71.328 28,70.5 28,69.672 27.328,69 26.5,69 z m 9,0 C 34.672,69 34,69.672 34,70.5 34,71.328 34.672,72 35.5,72 36.328,72 37,71.328 37,70.5 37,69.672 36.328,69 35.5,69 z m 9,0 C 43.672,69 43,69.672 43,70.5 43,71.328 43.672,72 44.5,72 45.328,72 46,71.328 46,70.5 46,69.672 45.328,69 44.5,69 z m 9,0 C 52.672,69 52,69.672 52,70.5 52,71.328 52.672,72 53.5,72 54.328,72 55,71.328 55,70.5 55,69.672 54.328,69 53.5,69 z m 9,0 C 61.672,69 61,69.672 61,70.5 61,71.328 61.672,72 62.5,72 63.328,72 64,71.328 64,70.5 64,69.672 63.328,69 62.5,69 z m 9,0 C 70.672,69 70,69.672 70,70.5 70,71.328 70.672,72 71.5,72 72.328,72 73,71.328 73,70.5 73,69.672 72.328,69 71.5,69 z m 9,0 C 79.672,69 79,69.672 79,70.5 79,71.328 79.672,72 80.5,72 81.328,72 82,71.328 82,70.5 82,69.672 81.328,69 80.5,69 z m 9,0 C 88.672,69 88,69.672 88,70.5 88,71.328 88.672,72 89.5,72 90.328,72 91,71.328 91,70.5 91,69.672 90.328,69 89.5,69 z m 9,0 c -0.828,0 -1.5,0.672 -1.5,1.5 0,0.828 0.672,1.5 1.5,1.5 0.828,0 1.5,-0.672 1.5,-1.5 0,-0.828 -0.672,-1.5 -1.5,-1.5 z m -90,9 C 7.672,78 7,78.672 7,79.5 7,80.328 7.672,81 8.5,81 9.328,81 10,80.328 10,79.5 10,78.672 9.328,78 8.5,78 z m 9,0 C 16.672,78 16,78.672 16,79.5 16,80.328 16.672,81 17.5,81 18.328,81 19,80.328 19,79.5 19,78.672 18.328,78 17.5,78 z m 9,0 C 25.672,78 25,78.672 25,79.5 25,80.328 25.672,81 26.5,81 27.328,81 28,80.328 28,79.5 28,78.672 27.328,78 26.5,78 z m 9,0 C 34.672,78 34,78.672 34,79.5 34,80.328 34.672,81 35.5,81 36.328,81 37,80.328 37,79.5 37,78.672 36.328,78 35.5,78 z m 9,0 C 43.672,78 43,78.672 43,79.5 43,80.328 43.672,81 44.5,81 45.328,81 46,80.328 46,79.5 46,78.672 45.328,78 44.5,78 z m 9,0 C 52.672,78 52,78.672 52,79.5 52,80.328 52.672,81 53.5,81 54.328,81 55,80.328 55,79.5 55,78.672 54.328,78 53.5,78 z m 9,0 C 61.672,78 61,78.672 61,79.5 61,80.328 61.672,81 62.5,81 63.328,81 64,80.328 64,79.5 64,78.672 63.328,78 62.5,78 z m 9,0 C 70.672,78 70,78.672 70,79.5 70,80.328 70.672,81 71.5,81 72.328,81 73,80.328 73,79.5 73,78.672 72.328,78 71.5,78 z m 9,0 C 79.672,78 79,78.672 79,79.5 79,80.328 79.672,81 80.5,81 81.328,81 82,80.328 82,79.5 82,78.672 81.328,78 80.5,78 z m 9,0 C 88.672,78 88,78.672 88,79.5 88,80.328 88.672,81 89.5,81 90.328,81 91,80.328 91,79.5 91,78.672 90.328,78 89.5,78 z m 9,0 c -0.828,0 -1.5,0.672 -1.5,1.5 0,0.828 0.672,1.5 1.5,1.5 0.828,0 1.5,-0.672 1.5,-1.5 0,-0.828 -0.672,-1.5 -1.5,-1.5 z m -90,9 C 7.672,87 7,87.672 7,88.5 7,89.328 7.672,90 8.5,90 9.328,90 10,89.328 10,88.5 10,87.672 9.328,87 8.5,87 z m 9,0 C 16.672,87 16,87.672 16,88.5 16,89.328 16.672,90 17.5,90 18.328,90 19,89.328 19,88.5 19,87.672 18.328,87 17.5,87 z m 9,0 C 25.672,87 25,87.672 25,88.5 25,89.328 25.672,90 26.5,90 27.328,90 28,89.328 28,88.5 28,87.672 27.328,87 26.5,87 z m 9,0 C 34.672,87 34,87.672 34,88.5 34,89.328 34.672,90 35.5,90 36.328,90 37,89.328 37,88.5 37,87.672 36.328,87 35.5,87 z m 9,0 C 43.672,87 43,87.672 43,88.5 43,89.328 43.672,90 44.5,90 45.328,90 46,89.328 46,88.5 46,87.672 45.328,87 44.5,87 z m 9,0 C 52.672,87 52,87.672 52,88.5 52,89.328 52.672,90 53.5,90 54.328,90 55,89.328 55,88.5 55,87.672 54.328,87 53.5,87 z m 9,0 C 61.672,87 61,87.672 61,88.5 61,89.328 61.672,90 62.5,90 63.328,90 64,89.328 64,88.5 64,87.672 63.328,87 62.5,87 z m 9,0 C 70.672,87 70,87.672 70,88.5 70,89.328 70.672,90 71.5,90 72.328,90 73,89.328 73,88.5 73,87.672 72.328,87 71.5,87 z m 9,0 C 79.672,87 79,87.672 79,88.5 79,89.328 79.672,90 80.5,90 81.328,90 82,89.328 82,88.5 82,87.672 81.328,87 80.5,87 z m 9,0 C 88.672,87 88,87.672 88,88.5 88,89.328 88.672,90 89.5,90 90.328,90 91,89.328 91,88.5 91,87.672 90.328,87 89.5,87 z m 9,0 c -0.828,0 -1.5,0.672 -1.5,1.5 0,0.828 0.672,1.5 1.5,1.5 0.828,0 1.5,-0.672 1.5,-1.5 0,-0.828 -0.672,-1.5 -1.5,-1.5 z"
   id="path6069"
   style="opacity:0.07000002;fill:#802600" />
<g
   id="g6859"><path
     d="m 46.174233,62.900612 a 12.8,12.8 0 1 1 -25.6,0 12.8,12.8 0 1 1 25.6,0 z"
     id="path6077"
     style="fill:#ffffff;fill-opacity:1;fill-rule:evenodd;stroke:#000000;stroke-width:2;stroke-miterlimit:4;stroke-opacity:1;stroke-dasharray:none" /><path
     d="m 36.203866,59.146019 a 5.3306308,5.3306308 0 1 1 -10.661261,0 5.3306308,5.3306308 0 1 1 10.661261,0 z"
     id="path6851"
     style="fill:#000000;fill-opacity:1;fill-rule:evenodd;stroke:#000000;stroke-width:2;stroke-miterlimit:4;stroke-opacity:1;stroke-dasharray:none" /></g><g
   transform="translate(-1.8846626,3.7693252)"
   id="g6855"><path
     d="m 46.174233,62.900612 a 12.8,12.8 0 1 1 -25.6,0 12.8,12.8 0 1 1 25.6,0 z"
     transform="translate(52.770552,-4.0834356)"
     id="path6081"
     style="fill:#ffffff;fill-opacity:1;fill-rule:evenodd;stroke:#000000;stroke-width:2;stroke-miterlimit:4;stroke-opacity:1;stroke-dasharray:none" /><path
     d="m 36.203866,59.146019 a 5.3306308,5.3306308 0 1 1 -10.661261,0 5.3306308,5.3306308 0 1 1 10.661261,0 z"
     transform="translate(55.527404,3.9979731)"
     id="path6853"
     style="fill:#000000;fill-opacity:1;fill-rule:evenodd;stroke:#000000;stroke-width:2;stroke-miterlimit:4;stroke-opacity:1;stroke-dasharray:none" /></g></svg>